Postby Geophagus » Sun Oct 09, 2011 10:40 pm
DVD Bootleg Symphony X First Time In Rio
2011-06-05
Venue: Findicao Progresso
audience shot



The dvd has a nice menu, every chapter is a song
As a bonus, the show of the band that opened the night: Scarlet Horizon

the fingerprints are included, I don´t have a cover for it


Set List:
Oculus Ex Inferni
Of Sins and Shadows
Domination
Serpent's Kiss
End of Innocence
Paradise Lost
Smoke and Mirrors
Eve of Seduction
Dehumanized
Set the World on Fire (The Lie of Lies)

Bis:
The Odyssey


information about the first vob (no the show is not only 30 minutes long!):

Video
ID : 224 (0xE0)
Format : MPEG Video
Format version : Version 2
Format profile : Main@Main
Format settings, BVOP : Yes
Format settings, Matrix : Custom
Format settings, GOP : M=3, N=15
Duration : 31mn 7s
Bit rate mode : Variable
Bit rate : 4 317 Kbps
Maximum bit rate : 9 586 Kbps
Width : 720 pixels
Height : 576 pixels
Display aspect ratio : 16:9
Frame rate : 25.000 fps
Standard : PAL
Color space : YUV
Chroma subsampling : 4:2:0
Bit depth : 8 bits
Scan type : Progressive
Scan order : Top Field First
Compression mode : Lossy
Bits/(Pixel*Frame) : 0.416
Stream size : 961 MiB (94%)

Audio
ID : 189 (0xBD)-128 (0x80)
Format : AC-3
Format/Info : Audio Coding 3
Mode extension : CM (complete main)
Muxing mode : DVD-Video
Duration : 31mn 6s
Bit rate mode : Constant
Bit rate : 192 Kbps
Channel(s) : 2 channels
Channel positions : Front: L R
Sampling rate : 48.0 KHz
Bit depth : 16 bits
Compression mode : Lossy
Delay relative to video : -40ms
Stream size : 42.7 MiB (4%)